<svg width="40" height="40" viewBox="0 0 40 40" fill="none" xmlns="http://www.w3.org/2000/svg">
<g clip-path="url(#clip0_2_16)">
<path d="M27.4983 0C25.3658 0.147499 22.8733 1.51249 21.4208 3.28998C20.0958 4.90247 19.0058 7.29746 19.4308 9.62494C21.7608 9.69744 24.1683 8.29995 25.5633 6.49246C26.8683 4.80997 27.8558 2.42999 27.4983 0Z" fill="black"/>
<path d="M35.9257 13.6852C33.8783 11.1177 31.0008 9.62769 28.2833 9.62769C24.6958 9.62769 23.1783 11.3452 20.6858 11.3452C18.1158 11.3452 16.1634 9.63269 13.0609 9.63269C10.0134 9.63269 6.76841 11.4952 4.71092 14.6802C1.81844 19.1651 2.31344 27.5976 7.00091 34.78C8.6784 37.35 10.9184 40.24 13.8484 40.265C16.4559 40.29 17.1909 38.5925 20.7233 38.575C24.2558 38.555 24.9258 40.2875 27.5283 40.26C30.4608 40.2375 32.8233 37.035 34.5008 34.4651C35.7032 32.6226 36.1507 31.6951 37.0832 29.6151C30.3008 27.0326 29.2133 17.3876 35.9257 13.6852Z" fill="black"/>
</g>
<defs>
<clipPath id="clip0_2_16">
<rect width="40" height="40" fill="white"/>
</clipPath>
</defs>
</svg>
