<svg width="40" height="40" viewBox="0 0 40 40" fill="none" xmlns="http://www.w3.org/2000/svg">
<g clip-path="url(#clip0_2_29)">
<path d="M23.0148 20.0036L2.92773 39.3461C1.98709 38.7032 1.42861 37.6339 1.43848 36.4947V3.51253C1.42861 2.37326 1.98709 1.30398 2.92773 0.661133L23.0148 20.0036Z" fill="#2196F3"/>
<path d="M30.0435 13.2473L23.0148 20.0035L2.92773 0.661064C3.00342 0.602407 3.08225 0.547836 3.16381 0.497607C4.22543 -0.145837 5.55148 -0.166609 6.63277 0.443121L30.0435 13.2473Z" fill="#4CAF50"/>
<path d="M38.5615 20.0036C38.5746 21.2897 37.8757 22.4776 36.7453 23.0911L30.0436 26.7598L23.0149 20.0036L30.0436 13.2473L36.7453 16.916C37.8757 17.5295 38.5746 18.7174 38.5615 20.0036Z" fill="#FFC107"/>
<path d="M30.0435 26.7599L6.63277 39.5641C5.5491 40.1644 4.22807 40.1436 3.16381 39.5096C3.08225 39.4594 3.00342 39.4048 2.92773 39.3461L23.0149 20.0037L30.0435 26.7599Z" fill="#F44336"/>
</g>
<defs>
<clipPath id="clip0_2_29">
<rect width="40" height="40" fill="white"/>
</clipPath>
</defs>
</svg>
