<svg width="24" height="24" viewBox="0 0 24 24" fill="none" xmlns="http://www.w3.org/2000/svg">
<path d="M20.71 20.2653L17.31 16.8753C18.407 15.4778 19.0022 13.752 19 11.9753C19 10.3931 18.5308 8.84638 17.6518 7.53078C16.7727 6.21519 15.5233 5.18981 14.0615 4.58431C12.5997 3.97881 10.9911 3.82038 9.43928 4.12906C7.88743 4.43774 6.46197 5.19967 5.34315 6.31849C4.22433 7.43731 3.4624 8.86277 3.15372 10.4146C2.84504 11.9665 3.00347 13.575 3.60897 15.0368C4.21447 16.4986 5.23985 17.748 6.55544 18.6271C7.87103 19.5061 9.41775 19.9753 11 19.9753C12.7767 19.9776 14.5025 19.3823 15.9 18.2853L19.29 21.6853C19.383 21.7791 19.4936 21.8535 19.6154 21.9042C19.7373 21.955 19.868 21.9811 20 21.9811C20.132 21.9811 20.2627 21.955 20.3846 21.9042C20.5064 21.8535 20.617 21.7791 20.71 21.6853C20.8037 21.5924 20.8781 21.4818 20.9289 21.3599C20.9797 21.2381 21.0058 21.1074 21.0058 20.9753C21.0058 20.8433 20.9797 20.7126 20.9289 20.5908C20.8781 20.4689 20.8037 20.3583 20.71 20.2653ZM5 11.9753C5 10.7887 5.3519 9.62862 6.01119 8.64192C6.67047 7.65523 7.60755 6.88619 8.7039 6.43207C9.80026 5.97794 11.0067 5.85912 12.1705 6.09063C13.3344 6.32214 14.4035 6.89359 15.2426 7.7327C16.0818 8.57182 16.6532 9.64092 16.8847 10.8048C17.1162 11.9687 16.9974 13.1751 16.5433 14.2714C16.0892 15.3678 15.3201 16.3049 14.3334 16.9642C13.3467 17.6234 12.1867 17.9753 11 17.9753C9.4087 17.9753 7.88258 17.3432 6.75736 16.218C5.63214 15.0928 5 13.5666 5 11.9753Z" fill="#222222"/>
</svg>
